<svg xmlns="http://www.w3.org/2000/svg" width="38" height="38" viewBox="0 0 38 38" fill="none">
  <path fill-rule="evenodd" clip-rule="evenodd" d="M10.8393 8.77501C10.3433 8.77501 9.86005 8.77501 9.46225 8.82883C9.01414 8.8885 8.50285 9.03592 8.07814 9.46063C7.65343 9.88534 7.50601 10.3966 7.44634 10.8447C7.39252 11.2425 7.39252 11.7246 7.39252 12.2218V22.2932C7.39252 22.7904 7.39252 23.2725 7.44634 23.6703C7.50601 24.1184 7.65343 24.6297 8.07814 25.0544C8.50285 25.4791 9.01414 25.6265 9.46342 25.6862C9.86122 25.74 10.3433 25.74 10.8393 25.74H15.524C16.0119 25.74 16.4764 25.9307 16.8145 26.2618C17.1527 26.5929 17.3375 27.0375 17.3375 27.495C17.3375 27.8053 17.4608 28.1029 17.6802 28.3223C17.8996 28.5417 18.1972 28.665 18.5075 28.665H19.0925C19.4028 28.665 19.7004 28.5417 19.9198 28.3223C20.1392 28.1029 20.2625 27.8053 20.2625 27.495C20.2625 27.0375 20.4474 26.5941 20.7855 26.2618C21.1312 25.9264 21.5943 25.7392 22.076 25.74H26.7607C27.2579 25.74 27.74 25.74 28.1378 25.6862C28.5859 25.6265 29.0972 25.4791 29.5219 25.0544C29.9466 24.6297 30.094 24.1184 30.1537 23.6691C30.2075 23.2713 30.2075 22.7893 30.2075 22.2932V12.2218C30.2075 11.7246 30.2075 11.2425 30.1537 10.8447C30.094 10.3966 29.9466 9.88534 29.5219 9.46063C29.0972 9.03592 28.5859 8.8885 28.1366 8.82883C27.7388 8.77501 27.2568 8.77501 26.7607 8.77501H23.0705C21.7133 8.77501 20.4053 9.30385 19.4388 10.2516C19.199 10.4856 18.986 10.7418 18.8 11.0132C18.6124 10.7395 18.3984 10.4848 18.1612 10.2527C17.1905 9.30415 15.8867 8.77367 14.5295 8.77501H10.8393ZM17.3375 13.8446V23.8107C16.7712 23.5401 16.1516 23.3998 15.524 23.4H10.9025C10.3175 23.4 9.99694 23.3977 9.77464 23.3673H9.76645L9.76528 23.3579C9.73486 23.1356 9.73252 22.815 9.73252 22.23V12.285C9.73252 11.7 9.73486 11.3794 9.76528 11.1571V11.1489L9.77464 11.1478C9.99694 11.1174 10.3175 11.115 10.9025 11.115H14.5295C15.2818 11.115 15.9979 11.4075 16.5232 11.9223C16.7801 12.1723 16.9845 12.4712 17.1244 12.8013C17.2642 13.1314 17.3367 13.4861 17.3375 13.8446ZM26.6975 11.115C27.2825 11.115 27.6031 11.1174 27.8254 11.1478H27.8336L27.8347 11.1571C27.8652 11.3794 27.8675 11.7 27.8675 12.285V22.23C27.8675 22.815 27.8652 23.1356 27.8347 23.3579V23.3661L27.8254 23.3673C27.6031 23.3977 27.2825 23.4 26.6975 23.4H22.076C21.4485 23.4001 20.8289 23.5404 20.2625 23.8107V13.8446C20.2634 13.4861 20.3358 13.1314 20.4757 12.8013C20.6155 12.4712 20.8199 12.1723 21.0768 11.9223C21.6104 11.403 22.326 11.1133 23.0705 11.115H26.6975Z" fill="black"/>
</svg>