<svg xmlns="http://www.w3.org/2000/svg" width="38" height="38" viewBox="0 0 38 38" fill="none">
  <path fill-rule="evenodd" clip-rule="evenodd" d="M14.0392 9.94499C12.7288 9.94499 11.629 9.94499 10.7551 10.062C9.82841 10.1872 8.98133 10.4621 8.29923 11.1442C7.61712 11.8264 7.34217 12.6734 7.21815 13.5989C7.09998 14.4741 7.09998 15.575 7.09998 16.8843V20.5581C7.09998 21.8685 7.09998 22.9683 7.21698 23.8423C7.34217 24.7689 7.61712 25.616 8.29923 26.2981C8.98133 26.9802 9.82841 27.2551 10.7551 27.3803C11.629 27.4973 12.7288 27.4973 14.0392 27.4973H18.8082C20.1186 27.4973 21.2184 27.4973 22.0923 27.3803C23.019 27.2551 23.8661 26.9802 24.5482 26.2981C25.2303 25.616 25.5052 24.7689 25.6304 23.8423C25.7439 22.9917 25.7474 21.927 25.7474 20.6634L29.998 24.0014C31.1505 24.9058 32.8376 24.0856 32.8376 22.6208V14.8192C32.8376 13.3555 31.1505 12.5342 29.998 13.4386L25.7474 16.7778C25.7474 15.5142 25.7439 14.4495 25.6304 13.6001C25.5052 12.6734 25.2303 11.8264 24.5482 11.1442C23.8661 10.4621 23.019 10.1872 22.0923 10.0632C21.2184 9.94499 20.1186 9.94499 18.8082 9.94616L14.0392 9.94499ZM9.95477 12.7998C10.1303 12.6243 10.4005 12.4722 11.0674 12.3821C11.7683 12.2885 12.709 12.285 14.1211 12.285H18.7286C20.1408 12.285 21.0815 12.2873 21.7823 12.3821C22.4492 12.471 22.7195 12.6243 22.8938 12.7998C23.0693 12.9741 23.2214 13.2444 23.3115 13.9113C23.4051 14.6121 23.4086 15.5528 23.4086 16.965V20.4773C23.4086 21.8895 23.4063 22.8302 23.3127 23.531C23.2226 24.1979 23.0693 24.4682 22.895 24.6425C22.7195 24.818 22.4492 24.9701 21.7823 25.0602C21.0815 25.1538 20.1408 25.1573 18.7286 25.1573H14.12C12.7078 25.1573 11.7671 25.155 11.0663 25.0602C10.3994 24.9713 10.1291 24.818 9.95477 24.6437C9.77927 24.4682 9.62717 24.1979 9.53708 23.531C9.44348 22.8302 9.43997 21.8895 9.43997 20.4773V16.965C9.43997 15.5528 9.44231 14.6121 9.53708 13.9113C9.626 13.2444 9.78044 12.9741 9.95477 12.7998ZM27.0625 18.72L30.4976 16.022V21.418L27.0625 18.72Z" fill="black"/>
</svg>