<svg xmlns="http://www.w3.org/2000/svg" width="108" height="116" viewBox="0 0 108 116" fill="none">
  <g filter="url(#filter0_di_11_959)">
    <path d="M87.2285 59.2303C88.3076 59.071 88.7189 60.588 87.7071 60.9956L79.2189 64.4136C68.2584 68.8272 61.75 80.1763 63.4762 91.8652L64.8129 100.918C64.9722 101.997 63.4552 102.408 63.0476 101.396L59.6296 92.908C55.216 81.9475 43.8669 75.4392 32.178 77.1653L23.1257 78.5021C22.0464 78.6614 21.6352 77.1444 22.6471 76.7368L31.1353 73.3187C42.0957 68.9052 48.6041 57.5561 46.8779 45.8671L45.5411 36.8147C45.3819 35.7356 46.8989 35.3244 47.3064 36.3362L50.7245 44.8243C55.1381 55.7849 66.4872 62.2932 78.1762 60.5671L87.2285 59.2303Z" fill="white" fill-opacity="0.32" shape-rendering="crispEdges"/>
    <path d="M87.2285 59.2303C88.3076 59.071 88.7189 60.588 87.7071 60.9956L79.2189 64.4136C68.2584 68.8272 61.75 80.1763 63.4762 91.8652L64.8129 100.918C64.9722 101.997 63.4552 102.408 63.0476 101.396L59.6296 92.908C55.216 81.9475 43.8669 75.4392 32.178 77.1653L23.1257 78.5021C22.0464 78.6614 21.6352 77.1444 22.6471 76.7368L31.1353 73.3187C42.0957 68.9052 48.6041 57.5561 46.8779 45.8671L45.5411 36.8147C45.3819 35.7356 46.8989 35.3244 47.3064 36.3362L50.7245 44.8243C55.1381 55.7849 66.4872 62.2932 78.1762 60.5671L87.2285 59.2303Z" fill="url(#paint0_radial_11_959)" fill-opacity="0.5" shape-rendering="crispEdges"/>
    <path d="M87.2285 59.2303C88.3076 59.071 88.7189 60.588 87.7071 60.9956L79.2189 64.4136C68.2584 68.8272 61.75 80.1763 63.4762 91.8652L64.8129 100.918C64.9722 101.997 63.4552 102.408 63.0476 101.396L59.6296 92.908C55.216 81.9475 43.8669 75.4392 32.178 77.1653L23.1257 78.5021C22.0464 78.6614 21.6352 77.1444 22.6471 76.7368L31.1353 73.3187C42.0957 68.9052 48.6041 57.5561 46.8779 45.8671L45.5411 36.8147C45.3819 35.7356 46.8989 35.3244 47.3064 36.3362L50.7245 44.8243C55.1381 55.7849 66.4872 62.2932 78.1762 60.5671L87.2285 59.2303Z" fill="url(#paint1_radial_11_959)" fill-opacity="0.1" shape-rendering="crispEdges"/>
  </g>
  <defs>
    <filter id="filter0_di_11_959" x="0.422322" y="0.583226" width="114.921" height="114.921" filterUnits="userSpaceOnUse" color-interpolation-filters="sRGB">
      <feFlood flood-opacity="0" result="BackgroundImageFix"/>
      <feColorMatrix in="SourceAlpha" type="matrix" values="0 0 0 0 0 0 0 0 0 0 0 0 0 0 0 0 0 0 127 0" result="hardAlpha"/>
      <feOffset dx="2.70565" dy="-10.8226"/>
      <feGaussianBlur stdDeviation="12.1754"/>
      <feComposite in2="hardAlpha" operator="out"/>
      <feColorMatrix type="matrix" values="0 0 0 0 0 0 0 0 0 0 0 0 0 0 0 0 0 0 0.02 0"/>
      <feBlend mode="normal" in2="BackgroundImageFix" result="effect1_dropShadow_11_959"/>
      <feBlend mode="normal" in="SourceGraphic" in2="effect1_dropShadow_11_959" result="shape"/>
      <feColorMatrix in="SourceAlpha" type="matrix" values="0 0 0 0 0 0 0 0 0 0 0 0 0 0 0 0 0 0 127 0" result="hardAlpha"/>
      <feOffset dx="2.70565" dy="2.70565"/>
      <feGaussianBlur stdDeviation="4.05848"/>
      <feComposite in2="hardAlpha" operator="arithmetic" k2="-1" k3="1"/>
      <feColorMatrix type="matrix" values="0 0 0 0 1 0 0 0 0 1 0 0 0 0 1 0 0 0 0.39 0"/>
      <feBlend mode="normal" in2="shape" result="effect2_innerShadow_11_959"/>
    </filter>
    <radialGradient id="paint0_radial_11_959" cx="0" cy="0" r="1" gradientUnits="userSpaceOnUse" gradientTransform="translate(-45.8201 33.1673) rotate(72.0603) scale(159.093 28.5132)">
      <stop stop-color="white"/>
      <stop offset="1" stop-color="white" stop-opacity="0"/>
    </radialGradient>
    <radialGradient id="paint1_radial_11_959" cx="0" cy="0" r="1" gradientUnits="userSpaceOnUse" gradientTransform="translate(105.68 301.531) rotate(-122.887) scale(138.885 39.1409)">
      <stop stop-color="white"/>
      <stop offset="1" stop-color="white" stop-opacity="0"/>
    </radialGradient>
  </defs>
</svg>