<svg xmlns="http://www.w3.org/2000/svg" width="78" height="168" viewBox="0 0 78 168" fill="none">
  <g filter="url(#filter0_bdi_11_1121)">
    <path d="M44.171 90.7281C43.8755 91.4623 43.8738 92.3148 44.078 93.0787C45.9485 97.7547 49.8164 102.553 55.2475 104.739C57.5964 105.685 59.7105 106.366 61.9428 106.752L40.7296 159.451C40.0796 161.066 40.8094 163.066 42.5717 163.776L47.8562 165.903C49.471 166.553 51.4711 165.823 52.1805 164.061L72.6246 113.27L76.879 102.701C79.5974 95.9477 77.0479 79.3996 67.0654 75.3813C61.6343 73.1951 55.5792 73.8275 50.9324 76.0515C50.1095 76.402 49.6665 77.0769 49.371 77.811L44.171 90.7281Z" fill="white" fill-opacity="0.32" shape-rendering="crispEdges"/>
    <path d="M44.171 90.7281C43.8755 91.4623 43.8738 92.3148 44.078 93.0787C45.9485 97.7547 49.8164 102.553 55.2475 104.739C57.5964 105.685 59.7105 106.366 61.9428 106.752L40.7296 159.451C40.0796 161.066 40.8094 163.066 42.5717 163.776L47.8562 165.903C49.471 166.553 51.4711 165.823 52.1805 164.061L72.6246 113.27L76.879 102.701C79.5974 95.9477 77.0479 79.3996 67.0654 75.3813C61.6343 73.1951 55.5792 73.8275 50.9324 76.0515C50.1095 76.402 49.6665 77.0769 49.371 77.811L44.171 90.7281Z" fill="url(#paint0_radial_11_1121)" fill-opacity="0.5" shape-rendering="crispEdges"/>
    <path d="M44.171 90.7281C43.8755 91.4623 43.8738 92.3148 44.078 93.0787C45.9485 97.7547 49.8164 102.553 55.2475 104.739C57.5964 105.685 59.7105 106.366 61.9428 106.752L40.7296 159.451C40.0796 161.066 40.8094 163.066 42.5717 163.776L47.8562 165.903C49.471 166.553 51.4711 165.823 52.1805 164.061L72.6246 113.27L76.879 102.701C79.5974 95.9477 77.0479 79.3996 67.0654 75.3813C61.6343 73.1951 55.5792 73.8275 50.9324 76.0515C50.1095 76.402 49.6665 77.0769 49.371 77.811L44.171 90.7281Z" fill="url(#paint1_radial_11_1121)" fill-opacity="0.1" shape-rendering="crispEdges"/>
  </g>
  <g filter="url(#filter1_bdi_11_1121)">
    <path d="M4.12513 28.577L6.2268 39.7748L16.1714 93.6153C16.4925 95.3262 18.184 96.6193 20.051 96.2688L25.6499 95.218C27.3607 94.8969 28.6538 93.2054 28.3034 91.3383L17.9794 35.4759C20.2151 35.3786 22.4507 35.2802 24.9394 34.8131C30.6935 33.7332 35.4569 29.9417 38.2058 25.7218C38.7107 24.9835 38.7209 24.1763 38.575 23.3985L36.0062 9.71208C35.8602 8.93424 35.4029 8.21483 34.8197 7.68078C30.7269 4.74618 25.0396 2.75425 19.1305 3.86331C8.68022 5.66297 2.7824 21.4213 4.12524 28.576L4.12513 28.577Z" fill="white" fill-opacity="0.32" shape-rendering="crispEdges"/>
    <path d="M4.12513 28.577L6.2268 39.7748L16.1714 93.6153C16.4925 95.3262 18.184 96.6193 20.051 96.2688L25.6499 95.218C27.3607 94.8969 28.6538 93.2054 28.3034 91.3383L17.9794 35.4759C20.2151 35.3786 22.4507 35.2802 24.9394 34.8131C30.6935 33.7332 35.4569 29.9417 38.2058 25.7218C38.7107 24.9835 38.7209 24.1763 38.575 23.3985L36.0062 9.71208C35.8602 8.93424 35.4029 8.21483 34.8197 7.68078C30.7269 4.74618 25.0396 2.75425 19.1305 3.86331C8.68022 5.66297 2.7824 21.4213 4.12524 28.576L4.12513 28.577Z" fill="url(#paint2_radial_11_1121)" fill-opacity="0.5" shape-rendering="crispEdges"/>
    <path d="M4.12513 28.577L6.2268 39.7748L16.1714 93.6153C16.4925 95.3262 18.184 96.6193 20.051 96.2688L25.6499 95.218C27.3607 94.8969 28.6538 93.2054 28.3034 91.3383L17.9794 35.4759C20.2151 35.3786 22.4507 35.2802 24.9394 34.8131C30.6935 33.7332 35.4569 29.9417 38.2058 25.7218C38.7107 24.9835 38.7209 24.1763 38.575 23.3985L36.0062 9.71208C35.8602 8.93424 35.4029 8.21483 34.8197 7.68078C30.7269 4.74618 25.0396 2.75425 19.1305 3.86331C8.68022 5.66297 2.7824 21.4213 4.12524 28.576L4.12513 28.577Z" fill="url(#paint3_radial_11_1121)" fill-opacity="0.1" shape-rendering="crispEdges"/>
  </g>
  <defs>
    <filter id="filter0_bdi_11_1121" x="-14.5913" y="18.9404" width="147.574" height="202.283" filterUnits="userSpaceOnUse" color-interpolation-filters="sRGB">
      <feFlood flood-opacity="0" result="BackgroundImageFix"/>
      <feGaussianBlur in="BackgroundImageFix" stdDeviation="27.5433"/>
      <feComposite in2="SourceAlpha" operator="in" result="effect1_backgroundBlur_11_1121"/>
      <feColorMatrix in="SourceAlpha" type="matrix" values="0 0 0 0 0 0 0 0 0 0 0 0 0 0 0 0 0 0 127 0" result="hardAlpha"/>
      <feOffset dx="0.229267" dy="-0.917067"/>
      <feGaussianBlur stdDeviation="1.0317"/>
      <feComposite in2="hardAlpha" operator="out"/>
      <feColorMatrix type="matrix" values="0 0 0 0 0 0 0 0 0 0 0 0 0 0 0 0 0 0 0.02 0"/>
      <feBlend mode="normal" in2="effect1_backgroundBlur_11_1121" result="effect2_dropShadow_11_1121"/>
      <feBlend mode="normal" in="SourceGraphic" in2="effect2_dropShadow_11_1121" result="shape"/>
      <feColorMatrix in="SourceAlpha" type="matrix" values="0 0 0 0 0 0 0 0 0 0 0 0 0 0 0 0 0 0 127 0" result="hardAlpha"/>
      <feOffset dx="-2.50008" dy="3.12509"/>
      <feGaussianBlur stdDeviation="2.53133"/>
      <feComposite in2="hardAlpha" operator="arithmetic" k2="-1" k3="1"/>
      <feColorMatrix type="matrix" values="0 0 0 0 1 0 0 0 0 1 0 0 0 0 1 0 0 0 0.42 0"/>
      <feBlend mode="normal" in2="shape" result="effect3_innerShadow_11_1121"/>
    </filter>
    <filter id="filter1_bdi_11_1121" x="-51.1502" y="-51.5344" width="144.893" height="202.947" filterUnits="userSpaceOnUse" color-interpolation-filters="sRGB">
      <feFlood flood-opacity="0" result="BackgroundImageFix"/>
      <feGaussianBlur in="BackgroundImageFix" stdDeviation="27.5433"/>
      <feComposite in2="SourceAlpha" operator="in" result="effect1_backgroundBlur_11_1121"/>
      <feColorMatrix in="SourceAlpha" type="matrix" values="0 0 0 0 0 0 0 0 0 0 0 0 0 0 0 0 0 0 127 0" result="hardAlpha"/>
      <feOffset dx="0.229267" dy="-0.917067"/>
      <feGaussianBlur stdDeviation="1.0317"/>
      <feComposite in2="hardAlpha" operator="out"/>
      <feColorMatrix type="matrix" values="0 0 0 0 0 0 0 0 0 0 0 0 0 0 0 0 0 0 0.02 0"/>
      <feBlend mode="normal" in2="effect1_backgroundBlur_11_1121" result="effect2_dropShadow_11_1121"/>
      <feBlend mode="normal" in="SourceGraphic" in2="effect2_dropShadow_11_1121" result="shape"/>
      <feColorMatrix in="SourceAlpha" type="matrix" values="0 0 0 0 0 0 0 0 0 0 0 0 0 0 0 0 0 0 127 0" result="hardAlpha"/>
      <feOffset dx="-2.50008" dy="3.12509"/>
      <feGaussianBlur stdDeviation="2.53133"/>
      <feComposite in2="hardAlpha" operator="arithmetic" k2="-1" k3="1"/>
      <feColorMatrix type="matrix" values="0 0 0 0 1 0 0 0 0 1 0 0 0 0 1 0 0 0 0.42 0"/>
      <feBlend mode="normal" in2="shape" result="effect3_innerShadow_11_1121"/>
    </filter>
    <radialGradient id="paint0_radial_11_1121" cx="0" cy="0" r="1" gradientUnits="userSpaceOnUse" gradientTransform="translate(7.71512 195.385) rotate(-5.95577) scale(17.9453 27.5162)">
      <stop stop-color="white"/>
      <stop offset="1" stop-color="white" stop-opacity="0"/>
    </radialGradient>
    <radialGradient id="paint1_radial_11_1121" cx="0" cy="0" r="1" gradientUnits="userSpaceOnUse" gradientTransform="translate(66.3223 129.624) rotate(127.912) scale(47.9508 12.3404)">
      <stop stop-color="white"/>
      <stop offset="1" stop-color="white" stop-opacity="0"/>
    </radialGradient>
    <radialGradient id="paint2_radial_11_1121" cx="0" cy="0" r="1" gradientUnits="userSpaceOnUse" gradientTransform="translate(29.7764 137.448) rotate(-38.365) scale(18.0022 27.5064)">
      <stop stop-color="white"/>
      <stop offset="1" stop-color="white" stop-opacity="0"/>
    </radialGradient>
    <radialGradient id="paint3_radial_11_1121" cx="0" cy="0" r="1" gradientUnits="userSpaceOnUse" gradientTransform="translate(43.9451 50.5969) rotate(95.4507) scale(47.8917 12.3905)">
      <stop stop-color="white"/>
      <stop offset="1" stop-color="white" stop-opacity="0"/>
    </radialGradient>
  </defs>
</svg>