<svg width="124" height="166" viewBox="0 0 124 166" fill="none" xmlns="http://www.w3.org/2000/svg">
<rect width="124" height="124" rx="29" fill="url(#paint0_linear_26_27)"/>
<rect width="124" height="124" rx="29" fill="white"/>
<g clip-path="url(#clip0_26_27)">
<mask id="mask0_26_27" style="mask-type:alpha" maskUnits="userSpaceOnUse" x="2" y="2" width="120" height="120">
<rect x="2" y="2" width="120" height="120" rx="28" fill="black"/>
</mask>
<g mask="url(#mask0_26_27)">
<rect x="2" y="2" width="120" height="120" fill="url(#paint1_linear_26_27)"/>
<path fill-rule="evenodd" clip-rule="evenodd" d="M76.2855 122C76.2855 165.393 41.1079 200.571 -2.28592 200.571C-45.6797 200.571 -80.8574 165.393 -80.8574 122C-80.8574 78.6059 -45.6797 43.4282 -2.28592 43.4282C41.1079 43.4282 76.2855 78.6059 76.2855 122ZM96.2855 122C96.2855 176.439 52.1536 220.571 -2.28592 220.571C-56.7254 220.571 -100.857 176.439 -100.857 122C-100.857 67.5602 -56.7254 23.4282 -2.28592 23.4282C52.1536 23.4282 96.2855 67.5602 96.2855 122ZM38.4292 122C38.4292 144.485 20.2008 162.714 -2.28508 162.714C-24.771 162.714 -42.9994 144.485 -42.9994 122C-42.9994 99.5136 -24.771 81.2852 -2.28508 81.2852C20.2008 81.2852 38.4292 99.5136 38.4292 122ZM57.7149 122C57.7149 155.137 30.852 182 -2.28508 182C-35.4222 182 -62.2851 155.137 -62.2851 122C-62.2851 88.8624 -35.4222 61.9995 -2.28508 61.9995C30.852 61.9995 57.7149 88.8624 57.7149 122Z" fill="url(#paint2_angular_26_27)"/>
<g filter="url(#filter0_ii_26_27)">
<path d="M59.9999 94.803C59.9999 92.2813 59.9999 91.0205 60.2098 89.9722C61.0643 85.7038 64.4007 82.3674 68.6691 81.5129C69.7174 81.303 70.9782 81.303 73.4999 81.303H100.5C103.022 81.303 104.282 81.303 105.331 81.5129C109.599 82.3674 112.936 85.7038 113.79 89.9722C114 91.0205 114 92.2813 114 94.803C114 97.3247 114 98.5856 113.79 99.6339C112.936 103.902 109.599 107.239 105.331 108.093C104.282 108.303 103.022 108.303 100.5 108.303H73.4999C70.9782 108.303 69.7174 108.303 68.6691 108.093C64.4007 107.239 61.0643 103.902 60.2098 99.6339C59.9999 98.5856 59.9999 97.3247 59.9999 94.803Z" fill="#DEE2EC"/>
<g filter="url(#filter1_d_26_27)">
<path d="M67.7149 88.6714H71.0973V94.0516H77.1402V88.6714H80.5226V102.518H77.1402V96.8604H71.0973V102.518H67.7149V88.6714Z" fill="black"/>
<path d="M83.8377 91.8362H87.1376V102.518H83.8377V91.8362ZM85.5083 90.2538C84.8758 90.2538 84.4152 90.122 84.1264 89.8582C83.8377 89.5945 83.6933 89.1989 83.6933 88.6714C83.6933 88.1439 83.8377 87.7483 84.1264 87.4846C84.4152 87.2209 84.8758 87.089 85.5083 87.089C86.1407 87.089 86.6013 87.2209 86.8901 87.4846C87.1788 87.7483 87.3232 88.1439 87.3232 88.6714C87.3232 89.1989 87.1788 89.5945 86.8901 89.8582C86.6013 90.122 86.1407 90.2538 85.5083 90.2538Z" fill="black"/>
<path d="M90.4847 88.6714H100.137V91.4802H93.8671V94.5461H99.8688V97.3549H93.8671V102.518H90.4847V88.6714Z" fill="black"/>
<path d="M102.801 91.8362H106.101V102.518H102.801V91.8362ZM104.471 90.2538C103.839 90.2538 103.378 90.122 103.09 89.8582C102.801 89.5945 102.656 89.1989 102.656 88.6714C102.656 88.1439 102.801 87.7483 103.09 87.4846C103.378 87.2209 103.839 87.089 104.471 87.089C105.104 87.089 105.564 87.2209 105.853 87.4846C106.142 87.7483 106.286 88.1439 106.286 88.6714C106.286 89.1989 106.142 89.5945 105.853 89.8582C105.564 90.122 105.104 90.2538 104.471 90.2538Z" fill="black"/>
</g>
</g>
</g>
</g>
<path d="M22.4925 146.796C23.072 146.371 23.9315 145.966 25.071 145.579C26.2106 145.193 27.5916 145 29.214 145C30.3536 145 31.3869 145.106 32.314 145.319C33.2411 145.512 34.0331 145.821 34.6898 146.246C35.3658 146.651 35.8776 147.173 36.2253 147.81C36.5923 148.448 36.7757 149.211 36.7757 150.099C36.7757 152.436 35.5782 154.03 33.1832 154.879C36.2736 155.343 37.8187 156.927 37.8187 159.631C37.8187 160.5 37.6449 161.321 37.2972 162.094C36.9496 162.847 36.4281 163.503 35.7327 164.064C35.0374 164.604 34.1683 165.039 33.1253 165.367C32.1016 165.696 30.9137 165.86 29.5617 165.86C28.6346 165.86 27.7654 165.783 26.9542 165.628C26.1623 165.493 25.438 165.309 24.7813 165.078C24.1439 164.827 23.5838 164.556 23.1009 164.266C22.6374 163.957 22.2704 163.648 22 163.339V158.878C22.309 159.399 22.705 159.882 23.1878 160.326C23.6707 160.77 24.2308 161.157 24.8682 161.485C25.5056 161.813 26.2202 162.074 27.0122 162.267C27.8234 162.441 28.6925 162.528 29.6196 162.528C30.2377 162.528 30.8172 162.46 31.358 162.325C31.8988 162.19 32.3623 161.997 32.7486 161.746C33.1542 161.475 33.4729 161.147 33.7047 160.761C33.9365 160.375 34.0524 159.921 34.0524 159.399C34.0524 158.491 33.695 157.825 32.9804 157.4C32.2851 156.975 31.1455 156.763 29.5617 156.763H26.4907V153.779H29.5327C30.1894 153.779 30.7399 153.711 31.1841 153.576C31.6284 153.421 31.9857 153.218 32.2561 152.967C32.5265 152.716 32.7196 152.426 32.8355 152.098C32.9707 151.77 33.0383 151.412 33.0383 151.026C33.0383 150.563 32.9418 150.167 32.7486 149.838C32.5555 149.491 32.2851 149.211 31.9374 148.998C31.5897 148.786 31.1841 148.631 30.7206 148.535C30.257 148.419 29.7548 148.351 29.214 148.332C28.4414 148.312 27.7075 148.399 27.0122 148.593C26.3361 148.786 25.7084 149.056 25.129 149.404C24.5688 149.732 24.057 150.109 23.5934 150.534C23.1492 150.959 22.7822 151.393 22.4925 151.837V146.796Z" fill="white"/>
<path d="M41.973 165.57V145.29H50.7805C55.3387 145.29 57.6179 146.97 57.6179 150.331C57.6179 151.49 57.3764 152.455 56.8936 153.228C56.4107 154.001 55.6478 154.59 54.6048 154.995C55.8602 155.208 56.7777 155.71 57.3571 156.502C57.9366 157.274 58.2263 158.327 58.2263 159.66C58.2263 160.703 58.0428 161.601 57.6758 162.354C57.3088 163.108 56.7777 163.726 56.0824 164.208C55.4063 164.672 54.5758 165.02 53.5908 165.251C52.625 165.464 51.5241 165.57 50.2879 165.57H41.973ZM50.5197 162.238C51.9104 162.238 52.9341 162.016 53.5908 161.572C54.2475 161.108 54.5758 160.384 54.5758 159.399C54.5758 158.414 54.2281 157.719 53.5328 157.313C52.8375 156.908 51.8524 156.705 50.5777 156.705H45.5945V162.238H50.5197ZM50.259 153.865C51.4179 153.865 52.3256 153.624 52.9823 153.141C53.6584 152.658 53.9964 151.982 53.9964 151.113C53.9964 150.302 53.7066 149.684 53.1272 149.259C52.5671 148.834 51.64 148.622 50.3459 148.622H45.5945V153.865H50.259Z" fill="white"/>
<path d="M66.8421 162.383C67.2284 162.383 67.576 162.296 67.8851 162.122C68.1941 161.949 68.4645 161.63 68.6963 161.166L59.8308 145.29H64.0318L70.5505 157.052L75.8814 145.29H79.6767L72.2309 161.34C71.8253 162.229 71.4197 162.963 71.0141 163.542C70.6085 164.102 70.1932 164.556 69.7683 164.904C69.3433 165.232 68.8991 165.464 68.4355 165.599C67.9913 165.734 67.5084 165.802 66.9869 165.802C66.5234 165.802 66.0792 165.754 65.6542 165.657C65.2486 165.561 64.9106 165.454 64.6402 165.338V161.572C64.9106 161.823 65.239 162.026 65.6253 162.18C66.0115 162.316 66.4172 162.383 66.8421 162.383Z" fill="white"/>
<path d="M86.3085 165.57H82.6865V145.29H86.3085V153.807H89.3505L95.8685 145.29H100.273L92.5375 154.937L101.519 165.57H96.8825L89.5245 156.792H86.3085V165.57Z" fill="white"/>
<defs>
<filter id="filter0_ii_26_27" x="59.9999" y="81.303" width="54" height="27" filterUnits="userSpaceOnUse" color-interpolation-filters="sRGB">
<feFlood flood-opacity="0" result="BackgroundImageFix"/>
<feBlend mode="normal" in="SourceGraphic" in2="BackgroundImageFix" result="shape"/>
<feColorMatrix in="SourceAlpha" type="matrix" values="0 0 0 0 0 0 0 0 0 0 0 0 0 0 0 0 0 0 127 0" result="hardAlpha"/>
<feOffset dy="0.404494"/>
<feComposite in2="hardAlpha" operator="arithmetic" k2="-1" k3="1"/>
<feColorMatrix type="matrix" values="0 0 0 0 1 0 0 0 0 1 0 0 0 0 1 0 0 0 0.3 0"/>
<feBlend mode="normal" in2="shape" result="effect1_innerShadow_26_27"/>
<feColorMatrix in="SourceAlpha" type="matrix" values="0 0 0 0 0 0 0 0 0 0 0 0 0 0 0 0 0 0 127 0" result="hardAlpha"/>
<feOffset dy="-0.404494"/>
<feComposite in2="hardAlpha" operator="arithmetic" k2="-1" k3="1"/>
<feColorMatrix type="matrix" values="0 0 0 0 1 0 0 0 0 1 0 0 0 0 1 0 0 0 0.3 0"/>
<feBlend mode="normal" in2="effect1_innerShadow_26_27" result="effect2_innerShadow_26_27"/>
</filter>
<filter id="filter1_d_26_27" x="67.7149" y="87.089" width="38.5714" height="15.8331" filterUnits="userSpaceOnUse" color-interpolation-filters="sRGB">
<feFlood flood-opacity="0" result="BackgroundImageFix"/>
<feColorMatrix in="SourceAlpha" type="matrix" values="0 0 0 0 0 0 0 0 0 0 0 0 0 0 0 0 0 0 127 0" result="hardAlpha"/>
<feOffset dy="0.404494"/>
<feComposite in2="hardAlpha" operator="out"/>
<feColorMatrix type="matrix" values="0 0 0 0 1 0 0 0 0 1 0 0 0 0 1 0 0 0 0.5 0"/>
<feBlend mode="normal" in2="BackgroundImageFix" result="effect1_dropShadow_26_27"/>
<feBlend mode="normal" in="SourceGraphic" in2="effect1_dropShadow_26_27" result="shape"/>
</filter>
<linearGradient id="paint0_linear_26_27" x1="110.714" y1="119.202" x2="14.3929" y2="3.69048" gradientUnits="userSpaceOnUse">
<stop/>
<stop offset="1" stop-color="#111111"/>
</linearGradient>
<linearGradient id="paint1_linear_26_27" x1="109.143" y1="117.357" x2="15.9286" y2="5.57143" gradientUnits="userSpaceOnUse">
<stop/>
<stop offset="1" stop-color="#111111"/>
</linearGradient>
<radialGradient id="paint2_angular_26_27" cx="0" cy="0" r="1" gradientUnits="userSpaceOnUse" gradientTransform="translate(-2.28592 118.071) rotate(53.4266) scale(183.694)">
<stop offset="0.19799" stop-color="#373C48"/>
<stop offset="0.63301" stop-color="#E3E7F1"/>
<stop offset="0.692305" stop-color="white"/>
</radialGradient>
<clipPath id="clip0_26_27">
<rect width="120" height="120" fill="white" transform="translate(2 2)"/>
</clipPath>
</defs>
</svg>
