<svg width="121" height="45" viewBox="0 0 121 45" fill="none" xmlns="http://www.w3.org/2000/svg">
<g id="download-1 1">
<path id="Vector" fill-rule="evenodd" clip-rule="evenodd" d="M13.1211 26.6721C13.1987 27.047 13.2375 27.2344 13.1202 27.3661C13.0029 27.4978 12.8073 27.4804 12.4162 27.4455C10.2265 27.2506 9.0019 26.8491 8.04409 26.4524C6.45082 25.7925 5.18498 24.5266 4.52502 22.9333C4.12826 21.9755 3.72676 20.7508 3.53175 18.561C3.49692 18.1699 3.4795 17.9744 3.61117 17.8571C3.74283 17.7398 3.9303 17.7786 4.30522 17.8562C8.72524 18.771 12.2063 22.252 13.1211 26.6721ZM17.3535 27.5262C17.0493 27.5404 16.8972 27.5475 16.7927 27.4609C16.6882 27.3743 16.6659 27.2162 16.6211 26.9C15.7032 20.4091 10.5682 15.274 4.07731 14.3561C3.76105 14.3114 3.60293 14.289 3.51635 14.1845C3.42978 14.08 3.43688 13.9279 3.45107 13.6238C3.5105 12.3498 3.63098 11.3488 3.78583 10.5325C3.83678 10.2639 3.86225 10.1296 3.96846 10.0482C4.07466 9.96677 4.21224 9.97711 4.48738 9.9978C13.2904 10.6596 20.3177 17.6869 20.9795 26.49C21.0001 26.7651 21.0105 26.9027 20.929 27.0089C20.8476 27.1151 20.7133 27.1406 20.4447 27.1915C19.6284 27.3463 18.6274 27.4668 17.3535 27.5262ZM25.2447 24.8319C24.8985 25.2108 24.7253 25.4002 24.5145 25.3372C24.3037 25.2742 24.2586 24.994 24.1683 24.4337C22.7123 15.3993 15.5782 8.2651 6.54384 6.80903C5.98352 6.71872 5.70336 6.67357 5.64038 6.46277C5.57739 6.25196 5.76681 6.07883 6.14566 5.73257C6.69829 5.22746 7.33914 4.81685 8.04409 4.52485C9.37843 3.97214 11.2306 3.41034 15.4886 3.41034C19.7467 3.41034 21.5992 3.97216 22.9335 4.52485C24.5268 5.1848 25.7926 6.45065 26.4526 8.04391C27.0052 9.37812 27.5669 11.2304 27.5669 15.4886C27.5669 19.7469 27.0052 21.5991 26.4526 22.9333C26.1606 23.6384 25.7499 24.2793 25.2447 24.8319ZM0 15.4886C0 10.8699 0.61972 8.5605 1.37428 6.73883C2.38036 4.30994 4.31011 2.38019 6.73901 1.37411C8.56068 0.619545 10.8699 0 15.4886 0C20.1074 0 22.4169 0.619545 24.2386 1.37411C26.6675 2.38019 28.5972 4.30994 29.6033 6.73883C30.3579 8.5605 30.9772 10.8699 30.9772 15.4886C30.9772 20.1074 30.3579 22.4168 29.6033 24.2384C28.5972 26.6673 26.6675 28.5971 24.2386 29.6032C22.4169 30.3577 20.1074 30.9773 15.4886 30.9773C10.8699 30.9773 8.56068 30.3577 6.73901 29.6032C4.31011 28.5971 2.38036 26.6673 1.37428 24.2384C0.61972 22.4168 0 20.1074 0 15.4886Z" fill="white"/>
<path id="Vector_2" d="M41.9739 7.0694C42.5534 6.64448 43.4129 6.23887 44.5524 5.85257C45.692 5.46628 47.073 5.27313 48.6954 5.27313C49.835 5.27313 50.8683 5.37936 51.7954 5.59182C52.7225 5.78497 53.5145 6.09401 54.1712 6.51893C54.8472 6.92454 55.359 7.44604 55.7067 8.08342C56.0737 8.72081 56.2571 9.48374 56.2571 10.3722C56.2571 12.7093 55.0596 14.3028 52.6646 15.1526C55.755 15.6162 57.3001 17.2 57.3001 19.904C57.3001 20.7732 57.1263 21.5941 56.7786 22.3667C56.431 23.1199 55.9095 23.7766 55.2141 24.3368C54.5188 24.8776 53.6497 25.3122 52.6067 25.6405C51.583 25.9689 50.3951 26.133 49.0431 26.133C48.116 26.133 47.2468 26.0558 46.4356 25.9013C45.6437 25.7661 44.9194 25.5826 44.2627 25.3508C43.6253 25.0997 43.0652 24.8293 42.5823 24.5396C42.1188 24.2305 41.7518 23.9215 41.4814 23.6125V19.1508C41.7904 19.6723 42.1864 20.1551 42.6692 20.5994C43.1521 21.0436 43.7122 21.4299 44.3496 21.7582C44.987 22.0866 45.7016 22.3473 46.4936 22.5405C47.3048 22.7143 48.1739 22.8012 49.101 22.8012C49.7191 22.8012 50.2986 22.7336 50.8394 22.5984C51.3802 22.4632 51.8437 22.2701 52.23 22.019C52.6356 21.7486 52.9543 21.4202 53.1861 21.0339C53.4179 20.6477 53.5338 20.1938 53.5338 19.6723C53.5338 18.7645 53.1764 18.0981 52.4618 17.6732C51.7665 17.2483 50.6269 17.0358 49.0431 17.0358H45.9721V14.0517H49.0141C49.6708 14.0517 50.2213 13.9841 50.6655 13.8489C51.1098 13.6944 51.4671 13.4915 51.7375 13.2405C52.0079 12.9894 52.201 12.6996 52.3169 12.3713C52.4521 12.0429 52.5197 11.6856 52.5197 11.2993C52.5197 10.8358 52.4232 10.4398 52.23 10.1115C52.0369 9.7638 51.7665 9.48374 51.4188 9.27128C51.0711 9.05882 50.6655 8.9043 50.202 8.80773C49.7384 8.69184 49.2362 8.62424 48.6954 8.60492C47.9228 8.58561 47.1889 8.67252 46.4936 8.86567C45.8175 9.05882 45.1898 9.32922 44.6104 9.67689C44.0502 10.0052 43.5384 10.3819 43.0748 10.8068C42.6306 11.2317 42.2636 11.6663 41.9739 12.1105V7.0694Z" fill="white"/>
<path id="Vector_3" d="M61.4545 25.8433V5.56284H70.262C74.8202 5.56284 77.0994 7.24322 77.0994 10.604C77.0994 11.7629 76.8579 12.7286 76.3751 13.5012C75.8922 14.2738 75.1293 14.8629 74.0863 15.2685C75.3417 15.481 76.2592 15.9831 76.8386 16.7751C77.4181 17.5476 77.7078 18.6003 77.7078 19.933C77.7078 20.976 77.5243 21.8741 77.1573 22.6274C76.7903 23.3807 76.2592 23.9988 75.5639 24.4816C74.8878 24.9452 74.0573 25.2928 73.0723 25.5246C72.1065 25.7371 71.0056 25.8433 69.7694 25.8433H61.4545ZM70.0012 22.5115C71.3919 22.5115 72.4156 22.2894 73.0723 21.8452C73.729 21.3816 74.0573 20.6573 74.0573 19.6723C74.0573 18.6872 73.7096 17.9919 73.0143 17.5863C72.319 17.1807 71.3339 16.9779 70.0592 16.9779H65.076V22.5115H70.0012ZM69.7405 14.1386C70.8994 14.1386 71.8071 13.8972 72.4638 13.4143C73.1399 12.9314 73.4779 12.2554 73.4779 11.3862C73.4779 10.575 73.1881 9.95694 72.6087 9.53202C72.0486 9.10709 71.1215 8.89463 69.8274 8.89463H65.076V14.1386H69.7405Z" fill="white"/>
<path id="Vector_4" d="M86.3236 22.6564C86.7099 22.6564 87.0575 22.5695 87.3666 22.3956C87.6756 22.2218 87.946 21.9031 88.1778 21.4396L79.3123 5.56284H83.5133L90.032 17.3255L95.3629 5.56284H99.1582L91.7124 21.6134C91.3068 22.5019 90.9012 23.2358 90.4956 23.8153C90.09 24.3754 89.6747 24.8293 89.2498 25.177C88.8248 25.5053 88.3806 25.7371 87.917 25.8723C87.4728 26.0075 86.9899 26.0751 86.4684 26.0751C86.0049 26.0751 85.5607 26.0268 85.1357 25.9302C84.7301 25.8337 84.3921 25.7274 84.1217 25.6115V21.8452C84.3921 22.0963 84.7205 22.2991 85.1068 22.4536C85.493 22.5888 85.8987 22.6564 86.3236 22.6564Z" fill="white"/>
<path id="Vector_5" d="M105.79 25.8433H102.168V5.56284H105.79V14.0806H108.832L115.35 5.56284H119.754L112.019 15.2106L121 25.8433H116.364L109.006 17.0648H105.79V25.8433Z" fill="white"/>
</g>
</svg>
