<svg xmlns="http://www.w3.org/2000/svg" width="38" height="38" viewBox="0 0 38 38" fill="none">
  <path d="M18.7989 7.02001C12.6213 7.02001 7.68503 11.8439 7.68503 17.7068C7.68503 19.6829 8.24078 21.5304 9.21305 23.1192C9.29325 23.2503 9.34686 23.3958 9.3708 23.5476C9.39474 23.6994 9.38856 23.8544 9.3526 24.0038C9.31664 24.1532 9.2516 24.294 9.16121 24.4183C9.07082 24.5425 8.95684 24.6478 8.82578 24.728C8.69472 24.8082 8.54914 24.8618 8.39737 24.8857C8.24559 24.9097 8.09059 24.9035 7.9412 24.8675C7.79181 24.8315 7.65097 24.7665 7.52672 24.6761C7.40247 24.5857 7.29723 24.4718 7.21703 24.3407C6.02831 22.3985 5.34503 20.1287 5.34503 17.7068C5.34503 10.4738 11.408 4.68001 18.7989 4.68001C26.1886 4.68001 32.2515 10.4738 32.2515 17.7068C32.2515 20.1287 31.5682 22.3985 30.3795 24.3407C30.2175 24.6054 29.957 24.7949 29.6553 24.8675C29.3536 24.9401 29.0354 24.8899 28.7708 24.728C28.5061 24.566 28.3166 24.3055 28.2439 24.0038C28.1713 23.7021 28.2215 23.3839 28.3835 23.1192C29.3839 21.4913 29.9129 19.6176 29.9115 17.7068C29.9115 11.8439 24.9753 7.02001 18.8 7.02001H18.7989Z" fill="black"/>
  <path fill-rule="evenodd" clip-rule="evenodd" d="M12.6633 16.7064C12.6633 15.1549 13.2797 13.667 14.3768 12.5699C15.4738 11.4728 16.9618 10.8564 18.5133 10.8564H19.0843C20.6358 10.8564 22.1238 11.4728 23.2209 12.5699C24.3179 13.667 24.9343 15.1549 24.9343 16.7064V22.3973C24.9343 25.2346 22.9008 27.5898 20.2297 28.1303V30.4142H21.7975C22.1078 30.4142 22.4054 30.5374 22.6248 30.7568C22.8442 30.9763 22.9675 31.2739 22.9675 31.5842C22.9675 31.8945 22.8442 32.1921 22.6248 32.4115C22.4054 32.6309 22.1078 32.7542 21.7975 32.7542H16.3219C16.0116 32.7542 15.714 32.6309 15.4946 32.4115C15.2752 32.1921 15.1519 31.8945 15.1519 31.5842C15.1519 31.2739 15.2752 30.9763 15.4946 30.7568C15.714 30.5374 16.0116 30.4142 16.3219 30.4142H17.8897V28.2146C16.4543 28.0607 15.1265 27.3815 14.1617 26.3076C13.1969 25.2337 12.6632 23.841 12.6633 22.3973V16.7064ZM19.0597 25.9073C21.0066 25.9073 22.5931 24.3278 22.5931 22.3973V16.7076C22.5931 15.7767 22.2233 14.8839 21.5651 14.2257C20.9068 13.5674 20.014 13.1976 19.0831 13.1976H18.5133C17.5824 13.1976 16.6896 13.5674 16.0314 14.2257C15.3731 14.8839 15.0033 15.7767 15.0033 16.7076V22.3985C15.0033 23.3294 15.3731 24.2222 16.0314 24.8804C16.6896 25.5387 17.5824 25.9085 18.5133 25.9085L19.0597 25.9073Z" fill="black"/>
</svg>