<svg xmlns="http://www.w3.org/2000/svg" width="38" height="38" viewBox="0 0 38 38" fill="none">
  <path fill-rule="evenodd" clip-rule="evenodd" d="M22.31 25.74C23.5512 25.74 24.7416 25.2469 25.6193 24.3692C26.4969 23.4916 26.99 22.3012 26.99 21.06C26.99 19.8188 26.4969 18.6284 25.6193 17.7507C24.7416 16.873 23.5512 16.38 22.31 16.38C21.0688 16.38 19.8784 16.873 19.0007 17.7507C18.1231 18.6284 17.63 19.8188 17.63 21.06C17.63 22.3012 18.1231 23.4916 19.0007 24.3692C19.8784 25.2469 21.0688 25.74 22.31 25.74ZM22.31 23.868C23.0547 23.868 23.769 23.5721 24.2956 23.0455C24.8222 22.5189 25.118 21.8047 25.118 21.06C25.118 20.3152 24.8222 19.601 24.2956 19.0744C23.769 18.5478 23.0547 18.252 22.31 18.252C21.5653 18.252 20.851 18.5478 20.3244 19.0744C19.7978 19.601 19.502 20.3152 19.502 21.06C19.502 21.8047 19.7978 22.5189 20.3244 23.0455C20.851 23.5721 21.5653 23.868 22.31 23.868Z" fill="black"/>
  <path fill-rule="evenodd" clip-rule="evenodd" d="M18.3296 8.81125C18.4946 8.62569 18.579 8.38221 18.5644 8.13438C18.5498 7.88655 18.4374 7.65466 18.2518 7.48974C18.0663 7.32481 17.8228 7.24035 17.575 7.25495C17.3271 7.26954 17.0953 7.38198 16.9303 7.56754L12.3568 12.7132C11.5612 12.774 10.8112 12.8583 10.3269 12.9882L10.3152 12.9917C9.69599 13.167 9.13522 13.5053 8.69133 13.9712C8.24743 14.4371 7.93667 15.0136 7.79146 15.6405C7.47995 17.3659 7.32721 19.1161 7.33516 20.8693C7.32463 22.636 7.4779 24.3992 7.79146 26.1378C7.79614 26.1682 7.80316 26.1975 7.81252 26.2279C7.98194 26.8228 8.30192 27.3639 8.74154 27.799C9.18116 28.2341 9.72557 28.5485 10.3222 28.7118L10.3269 28.713C10.8358 28.8487 11.6396 28.9353 12.482 28.9973C13.4119 29.061 14.343 29.105 15.2748 29.1295C16.3529 29.161 17.4313 29.1793 18.5098 29.1845H19.0913C20.1702 29.1794 21.2491 29.161 22.3275 29.1295C23.2589 29.1026 24.2522 29.0593 25.1192 28.9973C25.9616 28.9353 26.7653 28.8487 27.2743 28.713L27.286 28.7094C27.9052 28.5341 28.4659 28.1958 28.9098 27.7299C29.3537 27.264 29.6645 26.6875 29.8097 26.0606C30.1186 24.3477 30.2718 22.6114 30.266 20.8704C30.2763 19.0833 30.1196 17.2991 29.798 15.5411C29.6428 14.9213 29.3254 14.354 28.8784 13.8975C28.4314 13.441 27.8708 13.1118 27.2544 12.9437C26.7536 12.822 25.9557 12.7436 25.1133 12.6863C24.1844 12.6289 23.2544 12.5887 22.324 12.5658C21.2467 12.5373 20.169 12.5209 19.0913 12.5166H18.8772L18.8 12.5143H18.5087L17.7353 12.5213C16.8163 12.5312 15.8974 12.5507 14.9788 12.5798L18.3285 8.81008L18.3296 8.81125ZM18.8 14.3875H18.5168L17.7552 14.3945C17.1152 14.4015 16.247 14.4144 15.3286 14.4413C14.409 14.4694 13.4461 14.5103 12.6165 14.57C11.7671 14.6332 11.133 14.7104 10.8159 14.7946C10.5302 14.8769 10.2706 15.0316 10.0623 15.2438C9.85403 15.456 9.70414 15.7184 9.62719 16.0056C9.34037 17.6088 9.20017 19.2348 9.20833 20.8634V20.8751C9.19663 22.5096 9.33703 24.1429 9.62485 25.754C9.71085 26.0299 9.86475 26.2798 10.0724 26.4808C10.2801 26.6817 10.535 26.8273 10.8136 26.9041C11.1295 26.9884 11.7648 27.0668 12.6177 27.1288C13.4484 27.1896 14.4102 27.2306 15.3298 27.2575C16.3926 27.2885 17.4559 27.3064 18.5192 27.3113H19.0831C20.1461 27.3067 21.2089 27.2887 22.2714 27.2575C23.1762 27.2332 24.0804 27.1903 24.9834 27.1288C25.834 27.0668 26.467 26.9884 26.7841 26.9053C27.0701 26.8231 27.3301 26.6683 27.5386 26.4559C27.7471 26.2435 27.8971 25.9807 27.974 25.6932C28.2594 24.102 28.3987 22.4874 28.394 20.8728V20.8623C28.4041 19.2211 28.2635 17.5824 27.974 15.967C27.8976 15.681 27.7488 15.4194 27.5421 15.2075C27.3353 14.9957 27.0775 14.8406 26.7934 14.7572C26.4658 14.68 25.8305 14.6098 24.9893 14.5536C24.0849 14.4975 23.1796 14.4585 22.2737 14.4366C21.2104 14.4083 20.1468 14.3919 19.0831 14.3875H18.8725L18.8012 14.3863L18.8 14.3875Z" fill="black"/>
</svg>